<?xml version="1.0" encoding="UTF-8" standalone="no"?>
<svg
   xmlns:dc="http://purl.org/dc/elements/1.1/"
   xmlns:cc="http://creativecommons.org/ns#"
   xmlns:rdf="http://www.w3.org/1999/02/22-rdf-syntax-ns#"
   xmlns:svg="http://www.w3.org/2000/svg"
   xmlns="http://www.w3.org/2000/svg"
   xmlns:sodipodi="http://sodipodi.sourceforge.net/DTD/sodipodi-0.dtd"
   xmlns:inkscape="http://www.inkscape.org/namespaces/inkscape"
   version="1.1"
   id="emoji"
   x="0"
   y="0"
   viewBox="0 0 72 72"
   enable-background="new 0 0 72 72"
   xml:space="preserve"
   sodipodi:docname="logo.svg"
   inkscape:version="0.92.4 (5da689c313, 2019-01-14)"
   inkscape:export-filename="/home/mbarkmin/Downloads/1F476.svg.png"
   inkscape:export-xdpi="682.66998"
   inkscape:export-ydpi="682.66998"><metadata
   id="metadata58"><rdf:RDF><cc:Work
       rdf:about=""><dc:format>image/svg+xml</dc:format><dc:type
         rdf:resource="http://purl.org/dc/dcmitype/StillImage" /><dc:title></dc:title></cc:Work></rdf:RDF></metadata><defs
   id="defs56"><mask
     maskUnits="userSpaceOnUse"
     id="mask1161"><rect
       ry="33.130756"
       y="33.685226"
       x="-45.483002"
       height="66.261513"
       width="66.261513"
       id="rect1163"
       style="display:inline;opacity:1;fill:#ffffff;fill-opacity:1;stroke:#000000;stroke-width:1.63952577;stroke-linecap:round;stroke-linejoin:round;stroke-miterlimit:4;stroke-dasharray:none;stroke-opacity:1;paint-order:normal" /></mask></defs><sodipodi:namedview
   pagecolor="#ffffff"
   bordercolor="#666666"
   borderopacity="1"
   objecttolerance="10"
   gridtolerance="10"
   guidetolerance="10"
   inkscape:pageopacity="0"
   inkscape:pageshadow="2"
   inkscape:window-width="1858"
   inkscape:window-height="1016"
   id="namedview54"
   showgrid="false"
   inkscape:zoom="3.2777778"
   inkscape:cx="-57.379278"
   inkscape:cy="22.915506"
   inkscape:window-x="62"
   inkscape:window-y="27"
   inkscape:window-maximized="1"
   inkscape:current-layer="layer1" />
  
  <g
   inkscape:groupmode="layer"
   id="layer1"
   inkscape:label="Baby"
   style="display:inline"><rect
     style="opacity:1;fill:#3cb371;fill-opacity:1;stroke:#000000;stroke-width:1.73849857;stroke-linecap:round;stroke-linejoin:round;stroke-miterlimit:4;stroke-dasharray:none;stroke-opacity:1;paint-order:normal"
     id="rect324"
     width="70.261505"
     height="70.261505"
     x="0.86924744"
     y="0.86924744"
     ry="35.130753" /><g
     id="g322"
     transform="matrix(1.0603667,0,0,1.0603667,49.097908,-34.849445)"
     mask="url(#mask1161)"><g
       id="color"
       transform="translate(-48.20339,39.077811)"><path
         id="path2"
         d="m 17,62.542 v -1.9429 c 0,-8.4194 1.125,-25.7426 4.125,-32.0571 h 30 c 3,6.3145 3.875,23.6377 3.875,32.0571 v 1.9429 z"
         inkscape:connector-curvature="0"
         style="fill:#92d3f5" /><path
         id="path4"
         d="M 55,62.542 H 43 c 0,0 0,-11.541 0,-16.541 0,-3 -1,-4 -1,-4 l 5.3672,-2.8819 4.4141,-8.0166 1.4023,3.6495 z"
         inkscape:connector-curvature="0"
         style="fill:#61b2e4" /><circle
         id="circle6"
         r="3"
         cy="35.541"
         cx="36"
         style="fill:#ea5a47" /></g><g
       id="skin"
       transform="translate(-48.20339,39.077811)"><path
         id="path10"
         d="M 51.125,25.6621 C 51.125,16.5337 44.9619,10 36.125,10 c -8.8359,0 -15,6.5337 -15,15.6621 0,6.2769 -0.7832,12.2041 7.0898,16.3374 0,0 3.5352,1.0127 7.9102,1.0127 5,0 7.9697,-1.0532 7.9697,-1.0532 C 52.125,37.8662 51.125,31.9107 51.125,25.6621 Z M 36,38.541 c -1.6569,0 -3,-1.3431 -3,-3 0,-1.6569 1.3431,-3 3,-3 1.6569,0 3,1.3431 3,3 0,1.6569 -1.3431,3 -3,3 z"
         inkscape:connector-curvature="0"
         style="fill:#fcea2b" /></g><g
       id="line"
       transform="translate(-48.20339,39.077811)"><path
         id="path14"
         d="M 34.125,13.1621"
         stroke-miterlimit="10"
         inkscape:connector-curvature="0"
         style="fill:none;stroke:#000000;stroke-width:2;stroke-miterlimit:10" /><path
         id="path16"
         d="M 34.125,13.1621"
         stroke-miterlimit="10"
         inkscape:connector-curvature="0"
         style="fill:none;stroke:#000000;stroke-width:2;stroke-miterlimit:10" /><path
         id="path18"
         d="M 34,13.1621"
         stroke-miterlimit="10"
         inkscape:connector-curvature="0"
         style="fill:none;stroke:#000000;stroke-width:2;stroke-miterlimit:10" /><path
         id="path20"
         d="m 27,28.001 c 0,0 1,-1.001 2,-1.001 1,0 2,1.001 2,1.001"
         stroke-miterlimit="10"
         inkscape:connector-curvature="0"
         style="fill:none;stroke:#000000;stroke-width:2;stroke-linecap:round;stroke-miterlimit:10" /><path
         id="path22"
         d="m 41,28.001 c 0,0 1,-1.001 2,-1.001 1,0 2,1.001 2,1.001"
         stroke-miterlimit="10"
         inkscape:connector-curvature="0"
         style="fill:none;stroke:#000000;stroke-width:2;stroke-linecap:round;stroke-miterlimit:10" /><path
         id="path24"
         d="M 56,53"
         inkscape:connector-curvature="0"
         style="fill:none;stroke:#000000;stroke-width:2;stroke-linecap:round;stroke-linejoin:round" /><path
         id="path26"
         d="M 34,15.1621"
         stroke-miterlimit="10"
         inkscape:connector-curvature="0"
         style="fill:none;stroke:#000000;stroke-width:2;stroke-miterlimit:10" /><path
         id="path28"
         d="M 43,37"
         inkscape:connector-curvature="0"
         style="fill:none;stroke:#000000;stroke-width:2;stroke-linecap:round;stroke-linejoin:round" /><path
         id="path30"
         d="M 52,30"
         inkscape:connector-curvature="0"
         style="fill:none;stroke:#000000;stroke-width:2;stroke-linecap:round;stroke-linejoin:round" /><path
         id="path32"
         d="M 22,26"
         inkscape:connector-curvature="0"
         style="fill:none;stroke:#000000;stroke-width:2;stroke-linecap:round;stroke-linejoin:round" /><path
         id="path34"
         d="m 51,29.27 c 3,3 4,21.73 4,29.73 v 2.542"
         inkscape:connector-curvature="0"
         style="fill:none;stroke:#000000;stroke-width:2;stroke-linecap:round;stroke-linejoin:round" /><path
         id="path36"
         d="M 17,61.542 V 59 c 0,-8 1,-26.73 4,-29.73"
         inkscape:connector-curvature="0"
         style="fill:none;stroke:#000000;stroke-width:2;stroke-linecap:round;stroke-linejoin:round" /><line
         id="line38"
         y2="17"
         x2="31"
         y1="16"
         x1="32"
         stroke-miterlimit="10"
         style="fill:none;stroke:#000000;stroke-width:2;stroke-linecap:round;stroke-miterlimit:10" /><line
         id="line40"
         y2="17"
         x2="35"
         y1="15"
         x1="36"
         stroke-miterlimit="10"
         style="fill:none;stroke:#000000;stroke-width:2;stroke-linecap:round;stroke-miterlimit:10" /><line
         id="line42"
         y2="17"
         x2="41"
         y1="16"
         x1="40"
         stroke-miterlimit="10"
         style="fill:none;stroke:#000000;stroke-width:2;stroke-linecap:round;stroke-miterlimit:10" /><circle
         id="circle44"
         r="3"
         cy="35.541"
         cx="36"
         stroke-miterlimit="10"
         style="fill:none;stroke:#000000;stroke-width:2;stroke-miterlimit:10" /><path
         id="path46"
         d="M 32.7051,35.625 C 31.5684,35.3408 31,35 31,35"
         stroke-miterlimit="10"
         inkscape:connector-curvature="0"
         style="fill:none;stroke:#000000;stroke-width:2;stroke-linecap:round;stroke-linejoin:round;stroke-miterlimit:10" /><path
         id="path48"
         d="m 41,35 c 0,0 -0.5137,0.3081 -1.541,0.582"
         stroke-miterlimit="10"
         inkscape:connector-curvature="0"
         style="fill:none;stroke:#000000;stroke-width:2;stroke-linecap:round;stroke-linejoin:round;stroke-miterlimit:10" /><path
         id="path50"
         d="M 43.9697,41.9619 C 52,39 51,30 51,26.1621 51,17.3262 44.8369,11 36,11 27.1641,11 21,17.3262 21,26.1621 21,30 20,39 28.0898,42.001 c 3.7227,1.3789 12.1553,1.334 15.8799,-0.0391 z"
         inkscape:connector-curvature="0"
         style="fill:none;stroke:#000000;stroke-width:2;stroke-linecap:round;stroke-linejoin:round" /></g></g></g><g
   id="hair" />
  
  <g
   id="skin-shadow" />
  
<g
   inkscape:groupmode="layer"
   id="layer2"
   inkscape:label="Tractor" /></svg>