<?xml version="1.0" standalone="no"?>
<!DOCTYPE svg PUBLIC "-//W3C//DTD SVG 20010904//EN"
 "http://www.w3.org/TR/2001/REC-SVG-20010904/DTD/svg10.dtd">
<svg version="1.0" xmlns="http://www.w3.org/2000/svg"
 width="512.000000pt" height="512.000000pt" viewBox="0 0 512.000000 512.000000"
 preserveAspectRatio="xMidYMid meet">
<metadata>
Created by potrace 1.11, written by Peter Selinger 2001-2013
</metadata>
<g transform="translate(0.000000,512.000000) scale(0.100000,-0.100000)"
fill="#000000" stroke="none">
<path d="M2360 5114 c-753 -69 -1407 -429 -1851 -1020 -253 -337 -418 -738
-486 -1181 -23 -154 -24 -546 0 -703 118 -786 545 -1435 1213 -1842 288 -175
610 -289 974 -345 143 -22 527 -24 670 -4 1024 142 1830 823 2132 1801 72 235
103 455 103 740 0 233 -8 317 -50 525 -103 515 -395 1026 -782 1370 -394 352
-847 564 -1365 641 -99 14 -466 26 -558 18z m458 -135 c624 -68 1215 -382
1604 -850 309 -373 506 -835 558 -1314 13 -116 13 -394 0 -510 -51 -462 -243
-926 -531 -1282 -70 -86 -246 -265 -325 -330 l-50 -42 -13 232 c-41 776 -132
1332 -251 1543 -30 53 -30 55 -30 205 0 313 -68 559 -213 774 -105 154 -300
314 -475 390 -267 116 -599 136 -892 55 -180 -50 -391 -179 -520 -317 -217
-232 -320 -529 -320 -924 0 -127 -1 -133 -29 -183 -81 -141 -151 -460 -200
-916 -18 -164 -35 -391 -59 -759 l-7 -114 -65 53 c-88 72 -252 238 -329 333
-289 356 -480 816 -530 1279 -14 125 -14 391 0 516 50 463 241 922 530 1279
81 100 252 271 352 352 351 284 819 480 1267 530 111 12 416 13 528 0z m-3
-1259 c202 -40 363 -126 506 -269 151 -151 233 -305 280 -526 26 -121 37 -480
19 -650 -36 -351 -160 -564 -397 -684 -131 -66 -358 -102 -648 -103 -315 -1
-498 28 -655 105 -111 54 -238 177 -293 282 -96 186 -127 433 -107 833 13 259
62 426 177 599 224 339 668 503 1118 413z m-1389 -1750 c71 -234 218 -411 429
-515 180 -88 363 -119 710 -119 253 0 396 15 552 54 311 80 536 311 618 633
l23 91 15 -70 c40 -180 87 -541 112 -869 13 -183 35 -553 35 -616 0 -22 -15
-34 -104 -88 -291 -173 -635 -291 -971 -332 -129 -16 -442 -16 -570 0 -350 44
-720 172 -998 347 l-59 37 7 131 c28 579 71 1016 132 1331 24 125 27 136 35
105 5 -19 20 -73 34 -120z"/>
<path d="M2540 3587 c-28 -14 -119 -177 -120 -215 0 -34 16 -58 48 -71 53 -22
76 -3 132 108 27 56 50 108 50 117 0 19 -53 74 -72 74 -7 0 -24 -6 -38 -13z"/>
<path d="M2178 3462 c-44 -45 -58 -66 -58 -88 0 -62 55 -98 108 -70 36 19 98
85 110 116 12 31 -7 84 -33 94 -43 16 -69 6 -127 -52z"/>
<path d="M2822 3497 c-40 -42 -30 -76 43 -146 57 -55 69 -62 93 -56 43 10 62
34 62 75 0 32 -8 44 -59 93 -68 65 -102 73 -139 34z"/>
<path d="M1945 2667 c-72 -34 -125 -87 -125 -125 0 -41 30 -75 66 -75 18 0 51
15 83 36 64 44 86 46 137 9 66 -48 80 -53 110 -42 62 24 72 85 22 132 -91 85
-201 109 -293 65z"/>
<path d="M2995 2662 c-64 -31 -125 -90 -125 -122 0 -10 11 -31 23 -46 33 -37
73 -36 123 4 61 49 90 50 154 6 63 -42 102 -47 132 -16 51 50 13 118 -96 172
-77 39 -131 39 -211 2z"/>
<path d="M2463 2254 c-57 -21 -129 -87 -159 -145 -27 -54 -28 -55 -64 -34 -37
21 -68 18 -95 -10 -30 -30 -32 -73 -5 -103 11 -11 46 -31 79 -42 54 -20 60
-25 77 -68 9 -25 38 -67 64 -93 124 -124 322 -116 439 17 22 26 46 64 52 85
11 33 18 39 71 59 78 28 100 51 96 97 -2 25 -11 42 -30 56 -27 20 -48 19 -115
-9 -7 -3 -19 11 -28 33 -20 48 -88 118 -140 146 -53 27 -182 33 -242 11z"/>
</g>
</svg>
