<?xml version="1.0" encoding="UTF-8" standalone="no"?>
<!-- Generator: Adobe Illustrator 19.0.0, SVG Export Plug-In . SVG Version: 6.00 Build 0)  -->

<svg
   xmlns:dc="http://purl.org/dc/elements/1.1/"
   xmlns:cc="http://creativecommons.org/ns#"
   xmlns:rdf="http://www.w3.org/1999/02/22-rdf-syntax-ns#"
   xmlns:svg="http://www.w3.org/2000/svg"
   xmlns="http://www.w3.org/2000/svg"
   xmlns:sodipodi="http://sodipodi.sourceforge.net/DTD/sodipodi-0.dtd"
   xmlns:inkscape="http://www.inkscape.org/namespaces/inkscape"
   version="1.1"
   id="Layer_1"
   x="0px"
   y="0px"
   viewBox="0 0 511.999 511.999"
   style="enable-background:new 0 0 511.999 511.999;"
   xml:space="preserve"
   sodipodi:docname="diaper.svg"
   inkscape:version="0.92.4 (5da689c313, 2019-01-14)"><metadata
   id="metadata69"><rdf:RDF><cc:Work
       rdf:about=""><dc:format>image/svg+xml</dc:format><dc:type
         rdf:resource="http://purl.org/dc/dcmitype/StillImage" /></cc:Work></rdf:RDF></metadata><defs
   id="defs67" /><sodipodi:namedview
   pagecolor="#ffffff"
   bordercolor="#666666"
   borderopacity="1"
   objecttolerance="10"
   gridtolerance="10"
   guidetolerance="10"
   inkscape:pageopacity="0"
   inkscape:pageshadow="2"
   inkscape:window-width="949"
   inkscape:window-height="480"
   id="namedview65"
   showgrid="false"
   inkscape:zoom="0.46093841"
   inkscape:cx="255.9995"
   inkscape:cy="255.9995"
   inkscape:window-x="62"
   inkscape:window-y="27"
   inkscape:window-maximized="0"
   inkscape:current-layer="Layer_1" />
<g
   id="g20"
   transform="matrix(0.80270526,0,0,0.72822612,50.507455,69.574113)">
	<path
   style="fill:#f9eacd"
   d="m 101.303,234.628 c 42.492,-29.666 75.46,-65.828 63.177,-111.678 -1.088,-4.063 -2.507,-7.851 -4.221,-11.38 C 152.108,94.78 137.283,83.788 119.542,76.601 91.192,65.088 55.409,63.284 27.582,63.011 14.58,62.883 10.667,69.083 10.667,83.918 V 288.3 c 26.771,-15.455 61.018,-32.984 90.636,-53.672 z M 91.124,165.751 c -11.784,0 -21.334,-9.55 -21.334,-21.334 0,-11.784 9.55,-21.334 21.334,-21.334 11.782,0 21.334,9.55 21.334,21.334 0,11.784 -9.552,21.334 -21.334,21.334 z"
   id="path2"
   inkscape:connector-curvature="0" />
	<circle
   style="fill:#9fdee2"
   cx="91.119003"
   cy="144.412"
   r="21.334"
   id="circle4" />
	<g
   id="g10">
		<path
   style="fill:#f9eacd"
   d="m 164.479,122.95 c 12.284,45.85 -20.685,82.013 -63.177,111.685 20.018,74.7 29.337,81.093 36.26,187.482 37.648,21.736 68.959,30.764 118.437,30.764 26.812,0 48.29,-2.652 68.335,-8.54 16.941,-4.978 32.856,-12.267 50.101,-22.224 6.921,-106.387 16.245,-112.781 36.26,-187.488 -42.494,-29.666 -75.462,-65.828 -63.179,-111.678 6.265,-23.38 23.47,-37.65 44.94,-46.35 -26.668,-12.018 -69.812,-17.483 -136.457,-17.483 -66.649,0 -109.791,5.465 -136.459,17.483 17.741,7.188 32.566,18.179 40.717,34.969 1.716,3.529 3.135,7.317 4.222,11.38 z"
   id="path6"
   inkscape:connector-curvature="0" />
		<path
   style="fill:#f9eacd"
   d="M 410.694,234.635 Z M 347.518,122.95 c -12.284,45.85 20.685,82.013 63.177,111.683 29.621,20.684 63.866,38.212 90.638,53.668 V 83.917 c 0,-14.835 -3.915,-21.035 -16.917,-20.907 -27.824,0.273 -63.61,2.077 -91.961,13.58 -21.467,8.71 -38.672,22.979 -44.937,46.36 z m 73.896,42.801 c -11.782,0 -21.332,-9.55 -21.332,-21.334 0,-11.784 9.55,-21.334 21.332,-21.334 11.784,0 21.334,9.55 21.334,21.334 0,11.784 -9.55,21.334 -21.334,21.334 z"
   id="path8"
   inkscape:connector-curvature="0" />
	</g>
	<g
   id="g18">
		<circle
   style="fill:#9fdee2"
   cx="421.41901"
   cy="144.412"
   r="21.333"
   id="circle12" />
		<path
   style="fill:#9fdee2"
   d="m 410.697,234.628 z m 90.636,53.672 c -26.773,-15.456 -61.018,-32.984 -90.636,-53.671 -20.016,74.707 -29.339,81.1 -36.26,187.488 C 435.194,422.114 501.333,288.3 501.333,288.3 Z"
   id="path14"
   inkscape:connector-curvature="0" />
		<path
   style="fill:#9fdee2"
   d="m 101.303,234.628 z m 36.26,187.488 C 130.64,315.729 121.321,309.335 101.303,234.628 71.684,255.316 37.437,272.844 10.667,288.3 c 0,0 66.139,133.814 126.896,133.816 z"
   id="path16"
   inkscape:connector-curvature="0" />
	</g>
</g>
<g
   id="g32"
   transform="matrix(0.80270526,0,0,0.72822612,50.507455,69.574113)">
	<path
   style="fill:#000003"
   d="m 511.6,291.172 c 0.011,-0.036 0.025,-0.07 0.035,-0.107 0.114,-0.423 0.196,-0.85 0.256,-1.279 0.011,-0.078 0.017,-0.157 0.025,-0.236 0.044,-0.361 0.067,-0.722 0.073,-1.083 0,-0.057 0.011,-0.111 0.011,-0.169 V 83.917 c 0,-7.809 0,-31.576 -27.195,-31.576 l -0.494,0.002 c -24.611,0.242 -56.442,1.628 -84.381,10.28 -2.5,0.774 -4.923,1.601 -7.281,2.468 C 364.321,53.604 321.809,48.45 256.001,48.45 c -65.809,0 -108.325,5.154 -136.649,16.642 -2.361,-0.868 -4.781,-1.695 -7.281,-2.469 C 84.132,53.972 52.299,52.585 27.688,52.343 L 27.194,52.341 C 0,52.341 0,76.108 0,83.917 V 288.3 c 0,0.058 0.011,0.112 0.013,0.17 0.004,0.359 0.029,0.72 0.07,1.082 0.011,0.078 0.015,0.157 0.025,0.236 0.061,0.428 0.144,0.854 0.258,1.278 0.009,0.036 0.023,0.07 0.033,0.107 0.102,0.362 0.225,0.72 0.367,1.075 0.05,0.126 0.107,0.247 0.16,0.371 0.061,0.137 0.111,0.274 0.177,0.409 0.691,1.398 17.209,34.636 41.575,68.422 32.968,45.708 63.868,69.652 91.9,71.244 39.6,22.456 72.804,30.856 121.421,30.856 27.125,0 49.447,-2.621 70.762,-8.829 0.417,-0.097 0.827,-0.212 1.225,-0.356 16.451,-4.908 32.349,-11.982 49.432,-21.67 28.032,-1.593 58.932,-25.536 91.9,-71.244 24.368,-33.784 40.883,-67.023 41.576,-68.422 0.067,-0.134 0.116,-0.272 0.177,-0.409 0.054,-0.124 0.11,-0.245 0.16,-0.371 0.144,-0.357 0.269,-0.715 0.369,-1.077 z m -27.081,-217.494 0.286,-10e-4 c 3.528,0 4.469,0.656 4.469,0.656 0.015,0.015 1.392,1.538 1.392,9.586 v 186.094 c -2.284,-1.275 -4.606,-2.568 -6.965,-3.881 -21.805,-12.134 -45.578,-25.368 -66.739,-40.128 -0.087,-0.064 -0.177,-0.125 -0.269,-0.187 -9.978,-6.974 -19.374,-14.289 -27.695,-21.99 -28.095,-26 -38.291,-51.551 -31.175,-78.115 4.769,-17.801 17.501,-30.726 38.8,-39.306 0.085,-0.036 0.173,-0.062 0.258,-0.1 2.956,-1.182 6.071,-2.284 9.358,-3.3 25.298,-7.836 55.123,-9.102 78.28,-9.328 z M 256.001,69.785 c 48.763,0 84.553,2.952 109.966,9.181 -14.601,10.591 -24.237,24.369 -28.751,41.223 -13.236,49.401 18.995,87.83 61.26,118.748 -3.796,13.828 -7.196,25.256 -10.246,35.503 -11.59,38.932 -18.694,62.795 -24.054,141.229 -10.213,5.662 -19.899,10.265 -29.578,13.958 -0.085,-19.242 1.329,-40.686 2.323,-53.271 0.464,-5.872 -3.919,-11.011 -9.793,-11.475 -5.871,-0.465 -11.011,3.92 -11.476,9.794 -1.136,14.359 -2.796,39.936 -2.3,61.595 -17.142,4.193 -35.375,5.946 -57.351,5.946 -43.961,0 -72.946,-7.014 -108.176,-26.546 -5.36,-78.439 -12.466,-102.305 -24.058,-141.238 -3.05,-10.245 -6.45,-21.668 -10.245,-35.491 42.265,-30.918 74.498,-69.348 61.262,-118.75 -0.029,-0.108 -0.063,-0.213 -0.092,-0.321 14.93,-2.083 36.231,-3.711 56.123,-4.166 5.889,-0.135 10.556,-5.019 10.422,-10.908 -0.135,-5.89 -5.061,-10.523 -10.909,-10.421 -23.566,0.539 -48.473,2.616 -64.53,5.274 -5.025,-7.872 -11.622,-14.773 -19.765,-20.681 25.414,-6.231 61.202,-9.183 109.968,-9.183 z M 21.334,83.917 c 0,-8.046 1.377,-9.573 1.384,-9.579 0.009,-0.006 0.95,-0.662 4.475,-0.662 l 0.286,0.001 c 23.157,0.227 52.984,1.492 78.281,9.326 3.288,1.019 6.405,2.12 9.363,3.303 0.077,0.035 0.158,0.059 0.236,0.092 21.31,8.581 34.048,21.505 38.819,39.313 7.117,26.562 -3.08,52.113 -31.173,78.114 -8.294,7.676 -17.655,14.967 -27.595,21.92 -0.063,0.042 -0.125,0.086 -0.186,0.13 -21.208,14.813 -45.054,28.087 -66.922,40.256 -2.359,1.313 -4.682,2.606 -6.967,3.881 V 83.917 Z m 3.496,208.596 c 4.457,-2.511 9.061,-5.079 13.847,-7.741 17.859,-9.939 37.5,-20.873 56.253,-33.055 3.06,10.893 5.846,20.254 8.39,28.799 11.155,37.463 17.586,59.073 22.683,128.997 -38.51,-12.309 -81.857,-80.681 -101.173,-117 z m 427.187,56.454 c -23.984,33.254 -46.938,54.162 -66.014,60.458 5.094,-69.847 11.524,-91.453 22.672,-128.898 2.546,-8.548 5.331,-17.912 8.392,-28.81 18.755,12.183 38.396,23.117 56.257,33.057 4.765,2.652 9.353,5.208 13.793,7.71 -6.44,11.967 -19.103,34.305 -35.1,56.483 z"
   id="path22"
   inkscape:connector-curvature="0" />
	<path
   style="fill:#000003"
   d="m 91.126,176.418 c 17.645,0 32,-14.356 32,-32.002 0,-17.646 -14.355,-32.002 -32,-32.002 -17.647,0 -32.002,14.356 -32.002,32.002 0,17.646 14.355,32.002 32.002,32.002 z m 0,-42.669 c 5.88,0 10.665,4.785 10.665,10.667 0,5.882 -4.785,10.667 -10.665,10.667 -5.882,0 -10.667,-4.785 -10.667,-10.667 0,-5.881 4.785,-10.667 10.667,-10.667 z"
   id="path24"
   inkscape:connector-curvature="0" />
	<path
   style="fill:#000003"
   d="m 389.414,144.417 c 0,17.646 14.355,32.002 32.002,32.002 17.647,0 32.002,-14.356 32.002,-32.002 0,-17.646 -14.355,-32.002 -32.002,-32.002 -17.647,0 -32.002,14.356 -32.002,32.002 z m 32.002,-10.668 c 5.882,0 10.667,4.785 10.667,10.667 0,5.882 -4.785,10.667 -10.667,10.667 -5.882,0 -10.667,-4.785 -10.667,-10.667 0,-5.881 4.785,-10.667 10.667,-10.667 z"
   id="path26"
   inkscape:connector-curvature="0" />
	<path
   style="fill:#000003"
   d="m 260.874,116.057 c 0.05,0.003 0.183,0.01 0.265,0.014 0.214,0.013 0.427,0.019 0.64,0.019 5.565,-0.001 10.254,-4.318 10.634,-9.954 0.394,-5.878 -4.05,-10.963 -9.93,-11.357 l -0.265,-0.015 c -5.88,-0.365 -10.923,4.091 -11.303,9.96 -0.379,5.88 4.08,10.953 9.959,11.333 z"
   id="path28"
   inkscape:connector-curvature="0" />
	<path
   style="fill:#000003"
   d="m 327.879,356.402 c 0.457,0.058 0.909,0.086 1.356,0.086 5.292,0 9.886,-3.937 10.569,-9.326 l 0.115,-0.892 c 0.776,-5.84 -3.331,-11.203 -9.172,-11.977 -5.838,-0.769 -11.203,3.331 -11.977,9.172 l -0.131,1.013 c -0.741,5.844 3.396,11.183 9.24,11.924 z"
   id="path30"
   inkscape:connector-curvature="0" />
</g>
<g
   id="g34"
   transform="matrix(0.80270526,0,0,0.72822612,50.507455,69.574113)">
</g>
<g
   id="g36"
   transform="matrix(0.80270526,0,0,0.72822612,50.507455,69.574113)">
</g>
<g
   id="g38"
   transform="matrix(0.80270526,0,0,0.72822612,50.507455,69.574113)">
</g>
<g
   id="g40"
   transform="matrix(0.80270526,0,0,0.72822612,50.507455,69.574113)">
</g>
<g
   id="g42"
   transform="matrix(0.80270526,0,0,0.72822612,50.507455,69.574113)">
</g>
<g
   id="g44"
   transform="matrix(0.80270526,0,0,0.72822612,50.507455,69.574113)">
</g>
<g
   id="g46"
   transform="matrix(0.80270526,0,0,0.72822612,50.507455,69.574113)">
</g>
<g
   id="g48"
   transform="matrix(0.80270526,0,0,0.72822612,50.507455,69.574113)">
</g>
<g
   id="g50"
   transform="matrix(0.80270526,0,0,0.72822612,50.507455,69.574113)">
</g>
<g
   id="g52"
   transform="matrix(0.80270526,0,0,0.72822612,50.507455,69.574113)">
</g>
<g
   id="g54"
   transform="matrix(0.80270526,0,0,0.72822612,50.507455,69.574113)">
</g>
<g
   id="g56"
   transform="matrix(0.80270526,0,0,0.72822612,50.507455,69.574113)">
</g>
<g
   id="g58"
   transform="matrix(0.80270526,0,0,0.72822612,50.507455,69.574113)">
</g>
<g
   id="g60"
   transform="matrix(0.80270526,0,0,0.72822612,50.507455,69.574113)">
</g>
<g
   id="g62"
   transform="matrix(0.80270526,0,0,0.72822612,50.507455,69.574113)">
</g>
</svg>