<?xml version="1.0" encoding="UTF-8" standalone="no"?>
<svg
   xmlns:dc="http://purl.org/dc/elements/1.1/"
   xmlns:cc="http://creativecommons.org/ns#"
   xmlns:rdf="http://www.w3.org/1999/02/22-rdf-syntax-ns#"
   xmlns:svg="http://www.w3.org/2000/svg"
   xmlns="http://www.w3.org/2000/svg"
   xmlns:sodipodi="http://sodipodi.sourceforge.net/DTD/sodipodi-0.dtd"
   xmlns:inkscape="http://www.inkscape.org/namespaces/inkscape"
   version="1.1"
   id="emoji"
   x="0"
   y="0"
   viewBox="0 0 72 72"
   enable-background="new 0 0 72 72"
   xml:space="preserve"
   sodipodi:docname="logo.svg"
   inkscape:version="0.92.4 (5da689c313, 2019-01-14)"
   inkscape:export-filename="/home/mbarkmin/Downloads/1F476.svg.png"
   inkscape:export-xdpi="682.66998"
   inkscape:export-ydpi="682.66998"><metadata
   id="metadata58"><rdf:RDF><cc:Work
       rdf:about=""><dc:format>image/svg+xml</dc:format><dc:type
         rdf:resource="http://purl.org/dc/dcmitype/StillImage" /><dc:title></dc:title></cc:Work></rdf:RDF></metadata><defs
   id="defs56"><clipPath
     clipPathUnits="userSpaceOnUse"
     id="clipPath1053"><rect
       style="display:inline;opacity:1;fill:#ffffff;fill-opacity:1;stroke:#000000;stroke-width:1.63952577;stroke-linecap:round;stroke-linejoin:round;stroke-miterlimit:4;stroke-dasharray:none;stroke-opacity:1;paint-order:normal"
       id="rect1055"
       width="66.261513"
       height="66.261513"
       x="-45.483002"
       y="33.685226"
       ry="33.130756" /></clipPath></defs><sodipodi:namedview
   pagecolor="#ffffff"
   bordercolor="#666666"
   borderopacity="1"
   objecttolerance="10"
   gridtolerance="10"
   guidetolerance="10"
   inkscape:pageopacity="0"
   inkscape:pageshadow="2"
   inkscape:window-width="1858"
   inkscape:window-height="1016"
   id="namedview54"
   showgrid="false"
   inkscape:zoom="6.5555556"
   inkscape:cx="25.387601"
   inkscape:cy="30.518888"
   inkscape:window-x="62"
   inkscape:window-y="27"
   inkscape:window-maximized="1"
   inkscape:current-layer="layer1"
   inkscape:snap-global="true" />
  
  <g
   inkscape:groupmode="layer"
   id="layer3"
   inkscape:label="BG"
   sodipodi:insensitive="true"
   style="display:inline"><rect
     style="display:inline;opacity:1;fill:#3cb371;fill-opacity:1;stroke:#000000;stroke-width:1.73849857;stroke-linecap:round;stroke-linejoin:round;stroke-miterlimit:4;stroke-dasharray:none;stroke-opacity:1;paint-order:normal"
     id="rect324"
     width="70.261505"
     height="70.261505"
     x="0.86924744"
     y="0.86924726"
     ry="35.130753" /></g><g
   inkscape:groupmode="layer"
   id="layer1"
   inkscape:label="Baby"
   style="display:inline"><g
     id="g322"
     transform="matrix(1.0603667,0,0,1.0603667,49.097908,-35.764653)"
     mask="none"
     clip-path="url(#clipPath1053)"><g
       id="color"
       transform="translate(-48.20339,39.077811)"><path
         style="fill:#92d3f5"
         d="m 17,62.542 c 0.01979,-9.531428 0.547112,-19.120402 2.417564,-28.484194 0.743882,-1.646349 0.479945,-5.040943 2.367904,-5.515806 9.779844,0 19.559688,0 29.339532,0 2.239501,5.464337 2.657474,11.451674 3.24407,17.270762 C 54.825502,51.376364 55.032131,56.959924 55,62.542 c -12.666667,0 -25.333333,0 -38,0 z"
         id="path2"
         inkscape:connector-curvature="0" /><path
         style="fill:#61b2e4"
         d="m 55,62.542 c -4,0 -8,0 -12,0 -0.0272,-5.857715 0.05534,-11.718419 -0.04297,-17.574203 0.296196,-1.475961 -1.92629,-3.135174 0.206749,-3.591685 1.403438,-0.810049 2.951969,-1.473465 4.267133,-2.372724 1.450129,-2.633629 2.900258,-5.267259 4.350387,-7.900888 0.542281,1.690317 1.577488,3.272444 1.49707,5.099435 C 53.852247,44.981957 54.426123,53.761978 55,62.542 Z"
         id="path4"
         inkscape:connector-curvature="0" /><path
         style="fill:#ea5a47"
         d="m 39,35.541 c 0.126833,2.450572 -3.14006,3.9707 -4.932653,2.294527 -1.957239,-1.481874 -1.013534,-4.959245 1.422752,-5.250876 C 37.265306,32.233898 39.044462,33.730392 39,35.541 Z"
         id="circle6"
         inkscape:connector-curvature="0" /></g><g
       id="skin"
       transform="translate(-48.20339,39.077811)"><path
         style="fill:#fcea2b"
         d="m 51.125,25.6621 c 0.159213,-6.005905 -3.183861,-12.245192 -8.928183,-14.498578 -6.364743,-2.6585648 -14.670743,-0.77727 -18.458273,5.223776 -2.460723,3.558834 -2.75334,7.998541 -2.634899,12.185977 -0.129654,3.983515 0.552243,8.422266 3.770851,11.143344 1.712093,1.610334 3.841077,2.735946 6.216259,2.883677 4.310068,0.665507 8.79964,0.582948 13.003945,-0.641296 3.557456,-1.638777 6.455399,-4.939775 6.852914,-8.931775 0.350369,-2.439733 0.17167,-4.911073 0.177386,-7.365125 z M 36,38.541 c -2.436636,0.12677 -3.96231,-3.108712 -2.314961,-4.908298 1.521284,-2.062781 5.175478,-0.958958 5.299473,1.601558 C 39.206233,36.944855 37.724145,38.587085 36,38.541 Z"
         id="path10"
         inkscape:connector-curvature="0" /></g><g
       id="line"
       transform="translate(-48.20339,39.077811)"><path
         style="fill:none;stroke:#000000;stroke-width:2;stroke-miterlimit:10"
         d=""
         id="path14"
         inkscape:connector-curvature="0" /><path
         style="fill:none;stroke:#000000;stroke-width:2;stroke-miterlimit:10"
         d=""
         id="path16"
         inkscape:connector-curvature="0" /><path
         style="fill:none;stroke:#000000;stroke-width:2;stroke-miterlimit:10"
         d=""
         id="path18"
         inkscape:connector-curvature="0" /><path
         style="fill:none;stroke:#000000;stroke-width:2;stroke-linecap:round;stroke-miterlimit:10"
         d="m 27,28.001 c 1.137138,-1.270835 2.8564,-1.277718 4,0"
         id="path20"
         inkscape:connector-curvature="0" /><path
         style="fill:none;stroke:#000000;stroke-width:2;stroke-linecap:round;stroke-miterlimit:10"
         d="m 41,28.001 c 1.137138,-1.270835 2.8564,-1.277718 4,0"
         id="path22"
         inkscape:connector-curvature="0" /><path
         style="fill:none;stroke:#000000;stroke-width:2;stroke-linecap:round;stroke-linejoin:round"
         d=""
         id="path24"
         inkscape:connector-curvature="0" /><path
         style="fill:none;stroke:#000000;stroke-width:2;stroke-miterlimit:10"
         d=""
         id="path26"
         inkscape:connector-curvature="0" /><path
         style="fill:none;stroke:#000000;stroke-width:2;stroke-linecap:round;stroke-linejoin:round"
         d=""
         id="path28"
         inkscape:connector-curvature="0" /><path
         style="fill:none;stroke:#000000;stroke-width:2;stroke-linecap:round;stroke-linejoin:round"
         d=""
         id="path30"
         inkscape:connector-curvature="0" /><path
         style="fill:none;stroke:#000000;stroke-width:2;stroke-linecap:round;stroke-linejoin:round"
         d=""
         id="path32"
         inkscape:connector-curvature="0" /><path
         style="fill:none;stroke:#000000;stroke-width:2;stroke-linecap:round;stroke-linejoin:round"
         d="m 51,29.27 c 1.904164,2.619715 2.077206,6.050885 2.659702,9.139109 C 54.684639,46.070295 55.033966,53.817127 55,61.542"
         id="path34"
         inkscape:connector-curvature="0" /><path
         style="fill:none;stroke:#000000;stroke-width:2;stroke-linecap:round;stroke-linejoin:round"
         d="M 17,61.542 C 17.01172,52.500931 17.341974,43.398897 19.013973,34.49429 19.455458,32.699648 19.783834,30.730581 21,29.27"
         id="path36"
         inkscape:connector-curvature="0" /><path
         style="fill:none;stroke:#000000;stroke-width:2;stroke-linecap:round;stroke-miterlimit:10"
         d="m 32,16 c -0.333333,0.333333 -0.666667,0.666667 -1,1"
         id="line38"
         inkscape:connector-curvature="0" /><path
         style="fill:none;stroke:#000000;stroke-width:2;stroke-linecap:round;stroke-miterlimit:10"
         d="m 36,15 c -0.333333,0.666667 -0.666667,1.333333 -1,2"
         id="line40"
         inkscape:connector-curvature="0" /><path
         style="fill:none;stroke:#000000;stroke-width:2;stroke-linecap:round;stroke-miterlimit:10"
         d="m 40,16 c 0.333333,0.333333 0.666667,0.666667 1,1"
         id="line42"
         inkscape:connector-curvature="0" /><path
         style="fill:none;stroke:#000000;stroke-width:2;stroke-miterlimit:10"
         d="m 39,35.541 c 0.126833,2.450572 -3.14006,3.9707 -4.932653,2.294527 -1.957239,-1.481874 -1.013534,-4.959245 1.422752,-5.250876 C 37.265306,32.233898 39.044462,33.730392 39,35.541 Z"
         id="circle44"
         inkscape:connector-curvature="0" /><path
         style="fill:none;stroke:#000000;stroke-width:2;stroke-linecap:round;stroke-linejoin:round;stroke-miterlimit:10"
         d="M 32.7051,35.625 C 32.118168,35.474948 31.535309,35.288355 31,35"
         id="path46"
         inkscape:connector-curvature="0" /><path
         style="fill:none;stroke:#000000;stroke-width:2;stroke-linecap:round;stroke-linejoin:round;stroke-miterlimit:10"
         d="m 41,35 c -0.484394,0.263012 -1.01097,0.437659 -1.541,0.582"
         id="path48"
         inkscape:connector-curvature="0" /><path
         style="fill:none;stroke:#000000;stroke-width:2;stroke-linecap:round;stroke-linejoin:round"
         d="m 43.9697,41.9619 c 3.896984,-1.253358 6.370122,-5.082852 6.811114,-9.027193 0.393823,-3.424688 0.40145,-6.934551 -0.136744,-10.340748 -1.013603,-5.674303 -5.759735,-10.394018 -11.462382,-11.304872 -5.961403,-1.202578 -12.801601,1.090552 -15.95549,6.496331 -2.621394,4.165353 -2.380136,9.279944 -2.145347,13.996455 0.247128,4.072101 2.315511,8.323699 6.276853,9.920549 4.141056,1.595417 8.730942,1.464076 13.082951,1.038772 1.194507,-0.158331 2.392199,-0.369101 3.529045,-0.779294 z"
         id="path50"
         inkscape:connector-curvature="0" /></g></g></g><g
   id="hair" />
  
  <g
   id="skin-shadow" />
  
<g
   inkscape:groupmode="layer"
   id="layer2"
   inkscape:label="Tractor"
   style="display:inline" /></svg>